<?xml version="1.0" encoding="UTF-8"?>
<svg xmlns="http://www.w3.org/2000/svg" 
     xmlns:xlink="http://www.w3.org/1999/xlink"
     width="1200" height="1060" 
     viewBox="0 0 1200 1060">
  <defs>
    <radialGradient id="leafGradient">
      <stop offset="0%" style="stop-color:#22c55e;stop-opacity:1" />
      <stop offset="100%" style="stop-color:#16a34a;stop-opacity:0.8" />
    </radialGradient>
    <radialGradient id="mergeGradient">
      <stop offset="0%" style="stop-color:#a78bfa;stop-opacity:1" />
      <stop offset="100%" style="stop-color:#7c3aed;stop-opacity:0.8" />
    </radialGradient>
    <radialGradient id="forkGradient">
      <stop offset="0%" style="stop-color:#fb923c;stop-opacity:1" />
      <stop offset="100%" style="stop-color:#ea580c;stop-opacity:0.8" />
    </radialGradient>
    <radialGradient id="tagGradient">
      <stop offset="0%" style="stop-color:#38bdf8;stop-opacity:1" />
      <stop offset="100%" style="stop-color:#0284c7;stop-opacity:0.8" />
    </radialGradient>
    <style>
      .branch-line { stroke: #64748b; stroke-width: 2; fill: none; opacity: 0.7; }
      .trunk-line { stroke: #22c55e; stroke-width: 2.5; fill: none; opacity: 0.6; }
      .commit-leaf { cursor: pointer; }
      .commit-leaf:hover { filter: brightness(1.5); }
      .branch-label { font-family: sans-serif; font-size: 12px; font-weight: bold; fill: #0f172a; }
    </style>
  </defs>
  
  <rect width="1200" height="1060" fill="#f8fafc"/>
  <defs>
    <pattern id="grid" width="100" height="100" patternUnits="userSpaceOnUse">
      <path d="M 100 0 L 0 0 0 100" fill="none" stroke="#e2e8f0" stroke-width="0.5" opacity="0.3"/>
    </pattern>
  </defs>
  <rect width="1200" height="1060" fill="url(#grid)"/>
  
  <!-- Branch connection lines -->
  <g id="branches">
    <line class="trunk-line" x1="600" y1="60" x2="600" y2="180"/>
    <path class="branch-line" d="M 600 60 C 600 76, 720 84, 720 100"/>
    <path class="branch-line" d="M 720 100 C 720 132, 600 148, 600 180"/>
    <line class="trunk-line" x1="600" y1="180" x2="600" y2="300"/>
    <path class="branch-line" d="M 600 180 C 600 196, 480 204, 480 220"/>
    <path class="branch-line" d="M 480 220 C 480 252, 600 268, 600 300"/>
    <line class="trunk-line" x1="600" y1="300" x2="600" y2="340"/>
    <line class="trunk-line" x1="600" y1="340" x2="600" y2="380"/>
    <line class="trunk-line" x1="600" y1="380" x2="600" y2="500"/>
    <path class="branch-line" d="M 600 380 C 600 396, 840 404, 840 420"/>
    <path class="branch-line" d="M 840 420 C 840 452, 600 468, 600 500"/>
    <line class="trunk-line" x1="600" y1="500" x2="600" y2="540"/>
    <line class="trunk-line" x1="600" y1="540" x2="600" y2="580"/>
    <line class="trunk-line" x1="600" y1="580" x2="600" y2="620"/>
    <line class="trunk-line" x1="600" y1="620" x2="600" y2="660"/>
    <line class="trunk-line" x1="600" y1="660" x2="600" y2="700"/>
    <line class="trunk-line" x1="600" y1="700" x2="600" y2="740"/>
    <line class="trunk-line" x1="600" y1="740" x2="600" y2="780"/>
    <line class="trunk-line" x1="600" y1="780" x2="600" y2="820"/>
    <line class="trunk-line" x1="600" y1="820" x2="600" y2="860"/>
    <line class="trunk-line" x1="600" y1="860" x2="600" y2="900"/>
    <line class="trunk-line" x1="600" y1="900" x2="600" y2="940"/>
  </g>
  <!-- Commit nodes -->
  <g id="commits">
    <circle class="commit-leaf" cx="600" cy="60" r="10" fill="url(#mergeGradient)" stroke="#7c3aed" stroke-width="1.5"><title>19ab528: Merge pull request #3 from XAOSTECH/chore/update-submodules-20260427-020533</title></circle>
    <circle class="commit-leaf" cx="720" cy="100" r="6" fill="url(#leafGradient)" stroke="#16a34a" stroke-width="1.5"><title>638c123: chore: update 1 submodule(s) to latest</title></circle>
    <circle class="commit-leaf" cx="600" cy="180" r="10" fill="url(#mergeGradient)" stroke="#7c3aed" stroke-width="1.5"><title>8ea9e65: Merge pull request #2 from XAOSTECH/chore/update-submodules-20260420-020103</title></circle>
    <circle class="commit-leaf" cx="480" cy="220" r="6" fill="url(#leafGradient)" stroke="#16a34a" stroke-width="1.5"><title>68580c6: chore: update 1 submodule(s) to latest</title></circle>
    <circle class="commit-leaf" cx="600" cy="300" r="9" fill="url(#forkGradient)" stroke="#ea580c" stroke-width="1.5"><title>4abd5f9: chore: update git tree visualisation</title></circle>
    <circle class="commit-leaf" cx="600" cy="340" r="6" fill="url(#leafGradient)" stroke="#16a34a" stroke-width="1.5"><title>349614c: chore: update git tree visualisation</title></circle>
    <circle class="commit-leaf" cx="600" cy="380" r="10" fill="url(#mergeGradient)" stroke="#7c3aed" stroke-width="1.5"><title>f0c8340: Merge pull request #1 from XAOSTECH/anglicise/20260401-005048</title></circle>
    <circle class="commit-leaf" cx="840" cy="420" r="6" fill="url(#leafGradient)" stroke="#16a34a" stroke-width="1.5"><title>edd1bdf: chore: convert American spellings to British English</title></circle>
    <circle class="commit-leaf" cx="600" cy="500" r="9" fill="url(#forkGradient)" stroke="#ea580c" stroke-width="1.5"><title>545fd82: chore: update git tree visualisation</title></circle>
    <circle class="commit-leaf" cx="600" cy="540" r="6" fill="url(#leafGradient)" stroke="#16a34a" stroke-width="1.5"><title>3c9f589: chore(dc-init): load workflows,actions</title></circle>
    <circle class="commit-leaf" cx="600" cy="580" r="6" fill="url(#leafGradient)" stroke="#16a34a" stroke-width="1.5"><title>46799e9: chore(dc-init): load workflows,actions</title></circle>
    <circle class="commit-leaf" cx="600" cy="620" r="6" fill="url(#leafGradient)" stroke="#16a34a" stroke-width="1.5"><title>4a9deae: chore(dc-init): load workflows,actions</title></circle>
    <circle class="commit-leaf" cx="600" cy="660" r="6" fill="url(#leafGradient)" stroke="#16a34a" stroke-width="1.5"><title>2d426cc: chore(dc-init): update workflows,actions</title></circle>
    <circle class="commit-leaf" cx="600" cy="700" r="6" fill="url(#leafGradient)" stroke="#16a34a" stroke-width="1.5"><title>9f31509: chore(dc-init): recover interrupted update</title></circle>
    <circle class="commit-leaf" cx="600" cy="740" r="6" fill="url(#leafGradient)" stroke="#16a34a" stroke-width="1.5"><title>4cffa0c: chore: clean up docs</title></circle>
    <circle class="commit-leaf" cx="600" cy="780" r="6" fill="url(#leafGradient)" stroke="#16a34a" stroke-width="1.5"><title>cc54192: chore(dc-init): update workflows and actions</title></circle>
    <circle class="commit-leaf" cx="600" cy="820" r="6" fill="url(#leafGradient)" stroke="#16a34a" stroke-width="1.5"><title>04c9215: chore(dc-modules): see XAOSTECH/dev-control</title></circle>
    <circle class="commit-leaf" cx="600" cy="860" r="6" fill="url(#leafGradient)" stroke="#16a34a" stroke-width="1.5"><title>cf865cc: chore(dc-init): load container details</title></circle>
    <circle class="commit-leaf" cx="600" cy="900" r="6" fill="url(#leafGradient)" stroke="#16a34a" stroke-width="1.5"><title>b35b76b: chore(dc-init): update workflows and actions</title></circle>
    <circle class="commit-leaf" cx="600" cy="940" r="6" fill="url(#leafGradient)" stroke="#16a34a" stroke-width="1.5"><title>b0b4a45: Initial commit</title></circle>
  </g>
  
  <!-- Legend -->
  <g id="legend" transform="translate(20, 20)">
    <rect width="200" height="110" fill="white" stroke="#cbd5e1" stroke-width="1" rx="4"/>
    <circle cx="20" cy="25" r="5" fill="url(#leafGradient)" stroke="#16a34a"/>
    <text x="32" y="30" class="branch-label" font-size="12">Regular Commit</text>
    <circle cx="20" cy="50" r="6" fill="url(#mergeGradient)" stroke="#7c3aed"/>
    <text x="32" y="55" class="branch-label" font-size="12">Merge Commit</text>
    <circle cx="20" cy="75" r="6" fill="url(#forkGradient)" stroke="#ea580c"/>
    <text x="32" y="80" class="branch-label" font-size="12">Fork Point</text>
    <circle cx="20" cy="100" r="6" fill="url(#tagGradient)" stroke="#0284c7"/>
    <text x="32" y="105" class="branch-label" font-size="12">Tagged</text>
  </g>
  
  <!-- Repository info -->
  <g id="info" transform="translate(20, 1020)">
    <text x="0" y="0" class="branch-label" font-size="12" fill="#666">
      Repository: ubu-tools
    </text>
    <text x="0" y="20" class="branch-label" font-size="10" fill="#999">
      Generated: 2026-05-04 02:08:56 UTC
    </text>
  </g>
</svg>
