<?xml version="1.0" encoding="UTF-8"?>
<svg xmlns="http://www.w3.org/2000/svg" 
     xmlns:xlink="http://www.w3.org/1999/xlink"
     width="1360" height="2140" 
     viewBox="0 0 1360 2140">
  <defs>
    <radialGradient id="leafGradient">
      <stop offset="0%" style="stop-color:#22c55e;stop-opacity:1" />
      <stop offset="100%" style="stop-color:#16a34a;stop-opacity:0.8" />
    </radialGradient>
    <radialGradient id="mergeGradient">
      <stop offset="0%" style="stop-color:#a78bfa;stop-opacity:1" />
      <stop offset="100%" style="stop-color:#7c3aed;stop-opacity:0.8" />
    </radialGradient>
    <radialGradient id="forkGradient">
      <stop offset="0%" style="stop-color:#fb923c;stop-opacity:1" />
      <stop offset="100%" style="stop-color:#ea580c;stop-opacity:0.8" />
    </radialGradient>
    <radialGradient id="tagGradient">
      <stop offset="0%" style="stop-color:#38bdf8;stop-opacity:1" />
      <stop offset="100%" style="stop-color:#0284c7;stop-opacity:0.8" />
    </radialGradient>
    <style>
      .branch-line { stroke: #64748b; stroke-width: 2; fill: none; opacity: 0.7; }
      .trunk-line { stroke: #22c55e; stroke-width: 2.5; fill: none; opacity: 0.6; }
      .commit-leaf { cursor: pointer; }
      .commit-leaf:hover { filter: brightness(1.5); }
      .branch-label { font-family: sans-serif; font-size: 12px; font-weight: bold; fill: #0f172a; }
    </style>
  </defs>
  
  <rect width="1360" height="2140" fill="#f8fafc"/>
  <defs>
    <pattern id="grid" width="100" height="100" patternUnits="userSpaceOnUse">
      <path d="M 100 0 L 0 0 0 100" fill="none" stroke="#e2e8f0" stroke-width="0.5" opacity="0.3"/>
    </pattern>
  </defs>
  <rect width="1360" height="2140" fill="url(#grid)"/>
  
  <!-- Branch connection lines -->
  <g id="branches">
    <line class="trunk-line" x1="600" y1="60" x2="600" y2="180"/>
    <path class="branch-line" d="M 600 60 C 600 76, 720 84, 720 100"/>
    <path class="branch-line" d="M 720 100 C 720 132, 600 148, 600 180"/>
    <line class="trunk-line" x1="600" y1="180" x2="600" y2="220"/>
    <line class="trunk-line" x1="600" y1="220" x2="600" y2="340"/>
    <path class="branch-line" d="M 600 220 C 600 236, 480 244, 480 260"/>
    <path class="branch-line" d="M 480 260 C 480 292, 600 308, 600 340"/>
    <line class="trunk-line" x1="600" y1="340" x2="600" y2="460"/>
    <path class="branch-line" d="M 600 340 C 600 356, 840 364, 840 380"/>
    <path class="branch-line" d="M 840 380 C 840 412, 600 428, 600 460"/>
    <line class="trunk-line" x1="600" y1="460" x2="600" y2="500"/>
    <line class="trunk-line" x1="600" y1="500" x2="600" y2="540"/>
    <line class="trunk-line" x1="600" y1="540" x2="600" y2="580"/>
    <line class="trunk-line" x1="600" y1="580" x2="600" y2="700"/>
    <path class="branch-line" d="M 600 580 C 600 596, 360 604, 360 620"/>
    <path class="branch-line" d="M 360 620 C 360 652, 600 668, 600 700"/>
    <line class="trunk-line" x1="600" y1="700" x2="600" y2="740"/>
    <line class="trunk-line" x1="600" y1="740" x2="600" y2="780"/>
    <line class="trunk-line" x1="600" y1="780" x2="600" y2="820"/>
    <line class="trunk-line" x1="600" y1="820" x2="600" y2="860"/>
    <line class="trunk-line" x1="600" y1="860" x2="600" y2="980"/>
    <path class="branch-line" d="M 600 860 C 600 876, 960 884, 960 900"/>
    <path class="branch-line" d="M 960 900 C 960 932, 600 948, 600 980"/>
    <line class="trunk-line" x1="600" y1="980" x2="600" y2="1020"/>
    <line class="trunk-line" x1="600" y1="1020" x2="600" y2="1060"/>
    <line class="trunk-line" x1="600" y1="1060" x2="600" y2="1100"/>
    <line class="trunk-line" x1="600" y1="1100" x2="600" y2="1140"/>
    <line class="trunk-line" x1="600" y1="1140" x2="600" y2="1260"/>
    <path class="branch-line" d="M 600 1140 C 600 1156, 240 1164, 240 1180"/>
    <path class="branch-line" d="M 240 1180 C 240 1212, 600 1228, 600 1260"/>
    <line class="trunk-line" x1="600" y1="1260" x2="600" y2="1380"/>
    <path class="branch-line" d="M 600 1260 C 600 1276, 1080 1284, 1080 1300"/>
    <path class="branch-line" d="M 1080 1300 C 1080 1332, 600 1348, 600 1380"/>
    <line class="trunk-line" x1="600" y1="1380" x2="600" y2="1420"/>
    <line class="trunk-line" x1="600" y1="1420" x2="600" y2="1460"/>
    <line class="trunk-line" x1="600" y1="1460" x2="600" y2="1580"/>
    <path class="branch-line" d="M 600 1460 C 600 1476, 120 1484, 120 1500"/>
    <path class="branch-line" d="M 120 1500 C 120 1532, 600 1548, 600 1580"/>
    <line class="trunk-line" x1="600" y1="1580" x2="600" y2="1620"/>
    <line class="trunk-line" x1="600" y1="1620" x2="600" y2="1660"/>
    <line class="trunk-line" x1="600" y1="1660" x2="600" y2="1700"/>
    <line class="trunk-line" x1="600" y1="1700" x2="600" y2="1740"/>
    <line class="trunk-line" x1="600" y1="1740" x2="600" y2="1780"/>
    <line class="trunk-line" x1="600" y1="1780" x2="600" y2="1820"/>
    <line class="trunk-line" x1="600" y1="1820" x2="600" y2="1860"/>
    <line class="trunk-line" x1="600" y1="1860" x2="600" y2="1900"/>
    <line class="trunk-line" x1="600" y1="1900" x2="600" y2="1940"/>
    <line class="trunk-line" x1="600" y1="1940" x2="600" y2="1980"/>
    <line class="trunk-line" x1="600" y1="1980" x2="600" y2="2020"/>
  </g>
  <!-- Commit nodes -->
  <g id="commits">
    <circle class="commit-leaf" cx="600" cy="60" r="10" fill="url(#mergeGradient)" stroke="#7c3aed" stroke-width="1.5"><title>e47cc9b: Merge pull request #8 from XAOSTECH/chore/update-submodules-20260907-021147</title></circle>
    <circle class="commit-leaf" cx="720" cy="100" r="6" fill="url(#leafGradient)" stroke="#16a34a" stroke-width="1.5"><title>a40dd71: chore: update 1 submodule(s) to latest</title></circle>
    <circle class="commit-leaf" cx="600" cy="180" r="9" fill="url(#forkGradient)" stroke="#ea580c" stroke-width="1.5"><title>61dc65c: chore: update git tree visualisation</title></circle>
    <circle class="commit-leaf" cx="600" cy="220" r="10" fill="url(#mergeGradient)" stroke="#7c3aed" stroke-width="1.5"><title>9149dbc: Merge pull request #7 from XAOSTECH/chore/update-submodules-20260810-010855</title></circle>
    <circle class="commit-leaf" cx="480" cy="260" r="6" fill="url(#leafGradient)" stroke="#16a34a" stroke-width="1.5"><title>73e7364: chore: update 1 submodule(s) to latest</title></circle>
    <circle class="commit-leaf" cx="600" cy="340" r="10" fill="url(#mergeGradient)" stroke="#7c3aed" stroke-width="1.5"><title>8f84bde: Merge pull request #6 from XAOSTECH/chore/update-submodules-20260803-020448</title></circle>
    <circle class="commit-leaf" cx="840" cy="380" r="6" fill="url(#leafGradient)" stroke="#16a34a" stroke-width="1.5"><title>8079a26: chore: update 1 submodule(s) to latest</title></circle>
    <circle class="commit-leaf" cx="600" cy="460" r="9" fill="url(#forkGradient)" stroke="#ea580c" stroke-width="1.5"><title>6dfa457: chore: update git tree visualisation</title></circle>
    <circle class="commit-leaf" cx="600" cy="500" r="6" fill="url(#leafGradient)" stroke="#16a34a" stroke-width="1.5"><title>fbc7131: chore: update git tree visualisation</title></circle>
    <circle class="commit-leaf" cx="600" cy="540" r="6" fill="url(#leafGradient)" stroke="#16a34a" stroke-width="1.5"><title>2cf5944: chore: update git tree visualisation</title></circle>
    <circle class="commit-leaf" cx="600" cy="580" r="10" fill="url(#mergeGradient)" stroke="#7c3aed" stroke-width="1.5"><title>7b7f4a4: Merge pull request #5 from XAOSTECH/chore/update-submodules-20260706-023002</title></circle>
    <circle class="commit-leaf" cx="360" cy="620" r="6" fill="url(#leafGradient)" stroke="#16a34a" stroke-width="1.5"><title>101ea79: chore: update 1 submodule(s) to latest</title></circle>
    <circle class="commit-leaf" cx="600" cy="700" r="9" fill="url(#forkGradient)" stroke="#ea580c" stroke-width="1.5"><title>f10e64a: chore: update git tree visualisation</title></circle>
    <circle class="commit-leaf" cx="600" cy="740" r="6" fill="url(#leafGradient)" stroke="#16a34a" stroke-width="1.5"><title>79c0484: chore: update git tree visualisation</title></circle>
    <circle class="commit-leaf" cx="600" cy="780" r="6" fill="url(#leafGradient)" stroke="#16a34a" stroke-width="1.5"><title>8f69a0c: chore: update git tree visualisation</title></circle>
    <circle class="commit-leaf" cx="600" cy="820" r="6" fill="url(#leafGradient)" stroke="#16a34a" stroke-width="1.5"><title>557af24: chore: update git tree visualisation</title></circle>
    <circle class="commit-leaf" cx="600" cy="860" r="10" fill="url(#mergeGradient)" stroke="#7c3aed" stroke-width="1.5"><title>04c295c: Merge pull request #4 from XAOSTECH/chore/update-submodules-20260601-025450</title></circle>
    <circle class="commit-leaf" cx="960" cy="900" r="6" fill="url(#leafGradient)" stroke="#16a34a" stroke-width="1.5"><title>15311a5: chore: update 1 submodule(s) to latest</title></circle>
    <circle class="commit-leaf" cx="600" cy="980" r="9" fill="url(#forkGradient)" stroke="#ea580c" stroke-width="1.5"><title>9e359a5: chore: update git tree visualisation</title></circle>
    <circle class="commit-leaf" cx="600" cy="1020" r="6" fill="url(#leafGradient)" stroke="#16a34a" stroke-width="1.5"><title>dfc5454: chore: update git tree visualisation</title></circle>
    <circle class="commit-leaf" cx="600" cy="1060" r="6" fill="url(#leafGradient)" stroke="#16a34a" stroke-width="1.5"><title>3f22ca7: chore: update git tree visualisation</title></circle>
    <circle class="commit-leaf" cx="600" cy="1100" r="6" fill="url(#leafGradient)" stroke="#16a34a" stroke-width="1.5"><title>2f70361: chore: update git tree visualisation</title></circle>
    <circle class="commit-leaf" cx="600" cy="1140" r="10" fill="url(#mergeGradient)" stroke="#7c3aed" stroke-width="1.5"><title>19ab528: Merge pull request #3 from XAOSTECH/chore/update-submodules-20260427-020533</title></circle>
    <circle class="commit-leaf" cx="240" cy="1180" r="6" fill="url(#leafGradient)" stroke="#16a34a" stroke-width="1.5"><title>638c123: chore: update 1 submodule(s) to latest</title></circle>
    <circle class="commit-leaf" cx="600" cy="1260" r="10" fill="url(#mergeGradient)" stroke="#7c3aed" stroke-width="1.5"><title>8ea9e65: Merge pull request #2 from XAOSTECH/chore/update-submodules-20260420-020103</title></circle>
    <circle class="commit-leaf" cx="1080" cy="1300" r="6" fill="url(#leafGradient)" stroke="#16a34a" stroke-width="1.5"><title>68580c6: chore: update 1 submodule(s) to latest</title></circle>
    <circle class="commit-leaf" cx="600" cy="1380" r="9" fill="url(#forkGradient)" stroke="#ea580c" stroke-width="1.5"><title>4abd5f9: chore: update git tree visualisation</title></circle>
    <circle class="commit-leaf" cx="600" cy="1420" r="6" fill="url(#leafGradient)" stroke="#16a34a" stroke-width="1.5"><title>349614c: chore: update git tree visualisation</title></circle>
    <circle class="commit-leaf" cx="600" cy="1460" r="10" fill="url(#mergeGradient)" stroke="#7c3aed" stroke-width="1.5"><title>f0c8340: Merge pull request #1 from XAOSTECH/anglicise/20260401-005048</title></circle>
    <circle class="commit-leaf" cx="120" cy="1500" r="6" fill="url(#leafGradient)" stroke="#16a34a" stroke-width="1.5"><title>edd1bdf: chore: convert American spellings to British English</title></circle>
    <circle class="commit-leaf" cx="600" cy="1580" r="9" fill="url(#forkGradient)" stroke="#ea580c" stroke-width="1.5"><title>545fd82: chore: update git tree visualisation</title></circle>
    <circle class="commit-leaf" cx="600" cy="1620" r="6" fill="url(#leafGradient)" stroke="#16a34a" stroke-width="1.5"><title>3c9f589: chore(dc-init): load workflows,actions</title></circle>
    <circle class="commit-leaf" cx="600" cy="1660" r="6" fill="url(#leafGradient)" stroke="#16a34a" stroke-width="1.5"><title>46799e9: chore(dc-init): load workflows,actions</title></circle>
    <circle class="commit-leaf" cx="600" cy="1700" r="6" fill="url(#leafGradient)" stroke="#16a34a" stroke-width="1.5"><title>4a9deae: chore(dc-init): load workflows,actions</title></circle>
    <circle class="commit-leaf" cx="600" cy="1740" r="6" fill="url(#leafGradient)" stroke="#16a34a" stroke-width="1.5"><title>2d426cc: chore(dc-init): update workflows,actions</title></circle>
    <circle class="commit-leaf" cx="600" cy="1780" r="6" fill="url(#leafGradient)" stroke="#16a34a" stroke-width="1.5"><title>9f31509: chore(dc-init): recover interrupted update</title></circle>
    <circle class="commit-leaf" cx="600" cy="1820" r="6" fill="url(#leafGradient)" stroke="#16a34a" stroke-width="1.5"><title>4cffa0c: chore: clean up docs</title></circle>
    <circle class="commit-leaf" cx="600" cy="1860" r="6" fill="url(#leafGradient)" stroke="#16a34a" stroke-width="1.5"><title>cc54192: chore(dc-init): update workflows and actions</title></circle>
    <circle class="commit-leaf" cx="600" cy="1900" r="6" fill="url(#leafGradient)" stroke="#16a34a" stroke-width="1.5"><title>04c9215: chore(dc-modules): see XAOSTECH/dev-control</title></circle>
    <circle class="commit-leaf" cx="600" cy="1940" r="6" fill="url(#leafGradient)" stroke="#16a34a" stroke-width="1.5"><title>cf865cc: chore(dc-init): load container details</title></circle>
    <circle class="commit-leaf" cx="600" cy="1980" r="6" fill="url(#leafGradient)" stroke="#16a34a" stroke-width="1.5"><title>b35b76b: chore(dc-init): update workflows and actions</title></circle>
    <circle class="commit-leaf" cx="600" cy="2020" r="6" fill="url(#leafGradient)" stroke="#16a34a" stroke-width="1.5"><title>b0b4a45: Initial commit</title></circle>
  </g>
  
  <!-- Legend -->
  <g id="legend" transform="translate(20, 20)">
    <rect width="200" height="110" fill="white" stroke="#cbd5e1" stroke-width="1" rx="4"/>
    <circle cx="20" cy="25" r="5" fill="url(#leafGradient)" stroke="#16a34a"/>
    <text x="32" y="30" class="branch-label" font-size="12">Regular Commit</text>
    <circle cx="20" cy="50" r="6" fill="url(#mergeGradient)" stroke="#7c3aed"/>
    <text x="32" y="55" class="branch-label" font-size="12">Merge Commit</text>
    <circle cx="20" cy="75" r="6" fill="url(#forkGradient)" stroke="#ea580c"/>
    <text x="32" y="80" class="branch-label" font-size="12">Fork Point</text>
    <circle cx="20" cy="100" r="6" fill="url(#tagGradient)" stroke="#0284c7"/>
    <text x="32" y="105" class="branch-label" font-size="12">Tagged</text>
  </g>
  
  <!-- Repository info -->
  <g id="info" transform="translate(20, 2100)">
    <text x="0" y="0" class="branch-label" font-size="12" fill="#666">
      Repository: ubu-tools
    </text>
    <text x="0" y="20" class="branch-label" font-size="10" fill="#999">
      Generated: 2026-09-07 02:12:09 UTC
    </text>
  </g>
</svg>
