<?xml version="1.0" encoding="UTF-8"?>
<svg xmlns="http://www.w3.org/2000/svg" width="778" height="132" viewBox="0 0 778 132">
  <rect width="100%" height="100%" fill="#0d1117" rx="8"/>
  <g id="edges" stroke-linecap="round">
    <line x1="758" y1="66" x2="722" y2="66" stroke="#2ea043" stroke-width="1.6" opacity="0.7"/>
    <path d="M 758 66 C 749 66, 749 86, 740 86" fill="none" stroke="#388bfd" stroke-width="1.4" opacity="0.65"/>
    <path d="M 740 86 C 731 86, 731 66, 722 66" fill="none" stroke="#388bfd" stroke-width="1.4" opacity="0.65"/>
    <line x1="722" y1="66" x2="704" y2="66" stroke="#2ea043" stroke-width="1.6" opacity="0.7"/>
    <line x1="704" y1="66" x2="668" y2="66" stroke="#2ea043" stroke-width="1.6" opacity="0.7"/>
    <path d="M 704 66 C 695 66, 695 46, 686 46" fill="none" stroke="#388bfd" stroke-width="1.4" opacity="0.65"/>
    <path d="M 686 46 C 677 46, 677 66, 668 66" fill="none" stroke="#388bfd" stroke-width="1.4" opacity="0.65"/>
    <line x1="668" y1="66" x2="632" y2="66" stroke="#2ea043" stroke-width="1.6" opacity="0.7"/>
    <path d="M 668 66 C 659 66, 659 106, 650 106" fill="none" stroke="#388bfd" stroke-width="1.4" opacity="0.65"/>
    <path d="M 650 106 C 641 106, 641 66, 632 66" fill="none" stroke="#388bfd" stroke-width="1.4" opacity="0.65"/>
    <line x1="632" y1="66" x2="614" y2="66" stroke="#2ea043" stroke-width="1.6" opacity="0.7"/>
    <line x1="614" y1="66" x2="596" y2="66" stroke="#2ea043" stroke-width="1.6" opacity="0.7"/>
    <line x1="596" y1="66" x2="578" y2="66" stroke="#2ea043" stroke-width="1.6" opacity="0.7"/>
    <line x1="578" y1="66" x2="542" y2="66" stroke="#2ea043" stroke-width="1.6" opacity="0.7"/>
    <path d="M 578 66 C 569 66, 569 26, 560 26" fill="none" stroke="#388bfd" stroke-width="1.4" opacity="0.65"/>
    <path d="M 560 26 C 551 26, 551 66, 542 66" fill="none" stroke="#388bfd" stroke-width="1.4" opacity="0.65"/>
    <line x1="542" y1="66" x2="524" y2="66" stroke="#2ea043" stroke-width="1.6" opacity="0.7"/>
    <line x1="524" y1="66" x2="506" y2="66" stroke="#2ea043" stroke-width="1.6" opacity="0.7"/>
    <line x1="506" y1="66" x2="488" y2="66" stroke="#2ea043" stroke-width="1.6" opacity="0.7"/>
    <line x1="488" y1="66" x2="470" y2="66" stroke="#2ea043" stroke-width="1.6" opacity="0.7"/>
    <line x1="470" y1="66" x2="434" y2="66" stroke="#2ea043" stroke-width="1.6" opacity="0.7"/>
    <path d="M 470 66 C 461 66, 461 106, 452 106" fill="none" stroke="#388bfd" stroke-width="1.4" opacity="0.65"/>
    <path d="M 452 106 C 443 106, 443 66, 434 66" fill="none" stroke="#388bfd" stroke-width="1.4" opacity="0.65"/>
    <line x1="434" y1="66" x2="416" y2="66" stroke="#2ea043" stroke-width="1.6" opacity="0.7"/>
    <line x1="416" y1="66" x2="398" y2="66" stroke="#2ea043" stroke-width="1.6" opacity="0.7"/>
    <line x1="398" y1="66" x2="380" y2="66" stroke="#2ea043" stroke-width="1.6" opacity="0.7"/>
    <line x1="380" y1="66" x2="362" y2="66" stroke="#2ea043" stroke-width="1.6" opacity="0.7"/>
    <line x1="362" y1="66" x2="326" y2="66" stroke="#2ea043" stroke-width="1.6" opacity="0.7"/>
    <path d="M 362 66 C 353 66, 353 26, 344 26" fill="none" stroke="#388bfd" stroke-width="1.4" opacity="0.65"/>
    <path d="M 344 26 C 335 26, 335 66, 326 66" fill="none" stroke="#388bfd" stroke-width="1.4" opacity="0.65"/>
    <line x1="326" y1="66" x2="290" y2="66" stroke="#2ea043" stroke-width="1.6" opacity="0.7"/>
    <path d="M 326 66 C 317 66, 317 106, 308 106" fill="none" stroke="#388bfd" stroke-width="1.4" opacity="0.65"/>
    <path d="M 308 106 C 299 106, 299 66, 290 66" fill="none" stroke="#388bfd" stroke-width="1.4" opacity="0.65"/>
    <line x1="290" y1="66" x2="272" y2="66" stroke="#2ea043" stroke-width="1.6" opacity="0.7"/>
    <line x1="272" y1="66" x2="254" y2="66" stroke="#2ea043" stroke-width="1.6" opacity="0.7"/>
    <line x1="254" y1="66" x2="218" y2="66" stroke="#2ea043" stroke-width="1.6" opacity="0.7"/>
    <path d="M 254 66 C 245 66, 245 26, 236 26" fill="none" stroke="#388bfd" stroke-width="1.4" opacity="0.65"/>
    <path d="M 236 26 C 227 26, 227 66, 218 66" fill="none" stroke="#388bfd" stroke-width="1.4" opacity="0.65"/>
    <line x1="218" y1="66" x2="200" y2="66" stroke="#2ea043" stroke-width="1.6" opacity="0.7"/>
    <line x1="200" y1="66" x2="182" y2="66" stroke="#2ea043" stroke-width="1.6" opacity="0.7"/>
    <line x1="182" y1="66" x2="164" y2="66" stroke="#2ea043" stroke-width="1.6" opacity="0.7"/>
    <line x1="164" y1="66" x2="146" y2="66" stroke="#2ea043" stroke-width="1.6" opacity="0.7"/>
    <line x1="146" y1="66" x2="128" y2="66" stroke="#2ea043" stroke-width="1.6" opacity="0.7"/>
    <line x1="128" y1="66" x2="110" y2="66" stroke="#2ea043" stroke-width="1.6" opacity="0.7"/>
    <line x1="110" y1="66" x2="92" y2="66" stroke="#2ea043" stroke-width="1.6" opacity="0.7"/>
    <line x1="92" y1="66" x2="74" y2="66" stroke="#2ea043" stroke-width="1.6" opacity="0.7"/>
    <line x1="74" y1="66" x2="56" y2="66" stroke="#2ea043" stroke-width="1.6" opacity="0.7"/>
    <line x1="56" y1="66" x2="38" y2="66" stroke="#2ea043" stroke-width="1.6" opacity="0.7"/>
    <line x1="38" y1="66" x2="20" y2="66" stroke="#2ea043" stroke-width="1.6" opacity="0.7"/>
  </g>
  <g id="nodes">
    <circle cx="758" cy="66" r="4" fill="#a371f7" opacity="0.95"/>
    <circle cx="740" cy="86" r="3" fill="#3fb950" opacity="0.95"/>
    <circle cx="722" cy="66" r="4" fill="#f0883e" opacity="0.95"/>
    <circle cx="704" cy="66" r="4" fill="#a371f7" opacity="0.95"/>
    <circle cx="686" cy="46" r="3" fill="#3fb950" opacity="0.95"/>
    <circle cx="668" cy="66" r="4" fill="#a371f7" opacity="0.95"/>
    <circle cx="650" cy="106" r="3" fill="#3fb950" opacity="0.95"/>
    <circle cx="632" cy="66" r="4" fill="#f0883e" opacity="0.95"/>
    <circle cx="614" cy="66" r="3" fill="#3fb950" opacity="0.95"/>
    <circle cx="596" cy="66" r="3" fill="#3fb950" opacity="0.95"/>
    <circle cx="578" cy="66" r="4" fill="#a371f7" opacity="0.95"/>
    <circle cx="560" cy="26" r="3" fill="#3fb950" opacity="0.95"/>
    <circle cx="542" cy="66" r="4" fill="#f0883e" opacity="0.95"/>
    <circle cx="524" cy="66" r="3" fill="#3fb950" opacity="0.95"/>
    <circle cx="506" cy="66" r="3" fill="#3fb950" opacity="0.95"/>
    <circle cx="488" cy="66" r="3" fill="#3fb950" opacity="0.95"/>
    <circle cx="470" cy="66" r="4" fill="#a371f7" opacity="0.95"/>
    <circle cx="452" cy="106" r="3" fill="#3fb950" opacity="0.95"/>
    <circle cx="434" cy="66" r="4" fill="#f0883e" opacity="0.95"/>
    <circle cx="416" cy="66" r="3" fill="#3fb950" opacity="0.95"/>
    <circle cx="398" cy="66" r="3" fill="#3fb950" opacity="0.95"/>
    <circle cx="380" cy="66" r="3" fill="#3fb950" opacity="0.95"/>
    <circle cx="362" cy="66" r="4" fill="#a371f7" opacity="0.95"/>
    <circle cx="344" cy="26" r="3" fill="#3fb950" opacity="0.95"/>
    <circle cx="326" cy="66" r="4" fill="#a371f7" opacity="0.95"/>
    <circle cx="308" cy="106" r="3" fill="#3fb950" opacity="0.95"/>
    <circle cx="290" cy="66" r="4" fill="#f0883e" opacity="0.95"/>
    <circle cx="272" cy="66" r="3" fill="#3fb950" opacity="0.95"/>
    <circle cx="254" cy="66" r="4" fill="#a371f7" opacity="0.95"/>
    <circle cx="236" cy="26" r="3" fill="#3fb950" opacity="0.95"/>
    <circle cx="218" cy="66" r="4" fill="#f0883e" opacity="0.95"/>
    <circle cx="200" cy="66" r="3" fill="#3fb950" opacity="0.95"/>
    <circle cx="182" cy="66" r="3" fill="#3fb950" opacity="0.95"/>
    <circle cx="164" cy="66" r="3" fill="#3fb950" opacity="0.95"/>
    <circle cx="146" cy="66" r="3" fill="#3fb950" opacity="0.95"/>
    <circle cx="128" cy="66" r="3" fill="#3fb950" opacity="0.95"/>
    <circle cx="110" cy="66" r="3" fill="#3fb950" opacity="0.95"/>
    <circle cx="92" cy="66" r="3" fill="#3fb950" opacity="0.95"/>
    <circle cx="74" cy="66" r="3" fill="#3fb950" opacity="0.95"/>
    <circle cx="56" cy="66" r="3" fill="#3fb950" opacity="0.95"/>
    <circle cx="38" cy="66" r="3" fill="#3fb950" opacity="0.95"/>
    <circle cx="20" cy="66" r="3" fill="#3fb950" opacity="0.95"/>
  </g>
  <text x="770" y="125" text-anchor="end" font-family="sans-serif" font-size="9" fill="#6e7681">42 nodes &#183; 0 tags</text>
</svg>
