<?xml version="1.0" encoding="UTF-8"?>
<svg xmlns="http://www.w3.org/2000/svg"
     width="300" height="600"
     viewBox="340 40 640 1520">
  <style>
    @keyframes sway {
      0%   { transform: translateX(0); }
      25%  { transform: translateX(3px); }
      50%  { transform: translateX(-2px); }
      75%  { transform: translateX(4px); }
      100% { transform: translateX(0); }
    }
    .mini-node { animation: sway 4s ease-in-out infinite; }
    .mini-line { stroke-width: 1.5; fill: none; opacity: 0.5; }
  </style>
  <rect width="100%" height="100%" fill="#0a0a1a" rx="6"/>
  <g class="mini-node">
    <line class="mini-line" stroke="#4ade80" x1="600" y1="60" x2="600" y2="100"/>
    <line class="mini-line" stroke="#4ade80" x1="600" y1="100" x2="600" y2="220"/>
    <path class="mini-line" stroke="#64748b" d="M 600 100 C 600 116, 720 124, 720 140"/>
    <path class="mini-line" stroke="#64748b" d="M 720 140 C 720 172, 600 188, 600 220"/>
    <line class="mini-line" stroke="#4ade80" x1="600" y1="220" x2="600" y2="260"/>
    <line class="mini-line" stroke="#4ade80" x1="600" y1="260" x2="600" y2="300"/>
    <line class="mini-line" stroke="#4ade80" x1="600" y1="300" x2="600" y2="340"/>
    <line class="mini-line" stroke="#4ade80" x1="600" y1="340" x2="600" y2="380"/>
    <line class="mini-line" stroke="#4ade80" x1="600" y1="380" x2="600" y2="500"/>
    <path class="mini-line" stroke="#64748b" d="M 600 380 C 600 396, 480 404, 480 420"/>
    <path class="mini-line" stroke="#64748b" d="M 480 420 C 480 452, 600 468, 600 500"/>
    <line class="mini-line" stroke="#4ade80" x1="600" y1="500" x2="600" y2="540"/>
    <line class="mini-line" stroke="#4ade80" x1="600" y1="540" x2="600" y2="580"/>
    <line class="mini-line" stroke="#4ade80" x1="600" y1="580" x2="600" y2="620"/>
    <line class="mini-line" stroke="#4ade80" x1="600" y1="620" x2="600" y2="660"/>
    <line class="mini-line" stroke="#4ade80" x1="600" y1="660" x2="600" y2="780"/>
    <path class="mini-line" stroke="#64748b" d="M 600 660 C 600 676, 840 684, 840 700"/>
    <path class="mini-line" stroke="#64748b" d="M 840 700 C 840 732, 600 748, 600 780"/>
    <line class="mini-line" stroke="#4ade80" x1="600" y1="780" x2="600" y2="900"/>
    <path class="mini-line" stroke="#64748b" d="M 600 780 C 600 796, 360 804, 360 820"/>
    <path class="mini-line" stroke="#64748b" d="M 360 820 C 360 852, 600 868, 600 900"/>
    <line class="mini-line" stroke="#4ade80" x1="600" y1="900" x2="600" y2="940"/>
    <line class="mini-line" stroke="#4ade80" x1="600" y1="940" x2="600" y2="980"/>
    <line class="mini-line" stroke="#4ade80" x1="600" y1="980" x2="600" y2="1100"/>
    <path class="mini-line" stroke="#64748b" d="M 600 980 C 600 996, 960 1004, 960 1020"/>
    <path class="mini-line" stroke="#64748b" d="M 960 1020 C 960 1052, 600 1068, 600 1100"/>
    <line class="mini-line" stroke="#4ade80" x1="600" y1="1100" x2="600" y2="1140"/>
    <line class="mini-line" stroke="#4ade80" x1="600" y1="1140" x2="600" y2="1180"/>
    <line class="mini-line" stroke="#4ade80" x1="600" y1="1180" x2="600" y2="1220"/>
    <line class="mini-line" stroke="#4ade80" x1="600" y1="1220" x2="600" y2="1260"/>
    <line class="mini-line" stroke="#4ade80" x1="600" y1="1260" x2="600" y2="1300"/>
    <line class="mini-line" stroke="#4ade80" x1="600" y1="1300" x2="600" y2="1340"/>
    <line class="mini-line" stroke="#4ade80" x1="600" y1="1340" x2="600" y2="1380"/>
    <line class="mini-line" stroke="#4ade80" x1="600" y1="1380" x2="600" y2="1420"/>
    <line class="mini-line" stroke="#4ade80" x1="600" y1="1420" x2="600" y2="1460"/>
    <line class="mini-line" stroke="#4ade80" x1="600" y1="1460" x2="600" y2="1500"/>
    <line class="mini-line" stroke="#4ade80" x1="600" y1="1500" x2="600" y2="1540"/>
    <circle cx="600" cy="60" r="4" fill="#4ade80" opacity="0.9"/>
    <circle cx="600" cy="100" r="7" fill="#c084fc" opacity="0.9"/>
    <circle cx="720" cy="140" r="4" fill="#4ade80" opacity="0.9"/>
    <circle cx="600" cy="220" r="6" fill="#fb923c" opacity="0.9"/>
    <circle cx="600" cy="260" r="4" fill="#4ade80" opacity="0.9"/>
    <circle cx="600" cy="300" r="4" fill="#4ade80" opacity="0.9"/>
    <circle cx="600" cy="340" r="4" fill="#4ade80" opacity="0.9"/>
    <circle cx="600" cy="380" r="7" fill="#c084fc" opacity="0.9"/>
    <circle cx="480" cy="420" r="4" fill="#4ade80" opacity="0.9"/>
    <circle cx="600" cy="500" r="6" fill="#fb923c" opacity="0.9"/>
    <circle cx="600" cy="540" r="4" fill="#4ade80" opacity="0.9"/>
    <circle cx="600" cy="580" r="4" fill="#4ade80" opacity="0.9"/>
    <circle cx="600" cy="620" r="4" fill="#4ade80" opacity="0.9"/>
    <circle cx="600" cy="660" r="7" fill="#c084fc" opacity="0.9"/>
    <circle cx="840" cy="700" r="4" fill="#4ade80" opacity="0.9"/>
    <circle cx="600" cy="780" r="7" fill="#c084fc" opacity="0.9"/>
    <circle cx="360" cy="820" r="4" fill="#4ade80" opacity="0.9"/>
    <circle cx="600" cy="900" r="6" fill="#fb923c" opacity="0.9"/>
    <circle cx="600" cy="940" r="4" fill="#4ade80" opacity="0.9"/>
    <circle cx="600" cy="980" r="7" fill="#c084fc" opacity="0.9"/>
    <circle cx="960" cy="1020" r="4" fill="#4ade80" opacity="0.9"/>
    <circle cx="600" cy="1100" r="6" fill="#fb923c" opacity="0.9"/>
    <circle cx="600" cy="1140" r="4" fill="#4ade80" opacity="0.9"/>
    <circle cx="600" cy="1180" r="4" fill="#4ade80" opacity="0.9"/>
    <circle cx="600" cy="1220" r="4" fill="#4ade80" opacity="0.9"/>
    <circle cx="600" cy="1260" r="4" fill="#4ade80" opacity="0.9"/>
    <circle cx="600" cy="1300" r="4" fill="#4ade80" opacity="0.9"/>
    <circle cx="600" cy="1340" r="4" fill="#4ade80" opacity="0.9"/>
    <circle cx="600" cy="1380" r="4" fill="#4ade80" opacity="0.9"/>
    <circle cx="600" cy="1420" r="4" fill="#4ade80" opacity="0.9"/>
    <circle cx="600" cy="1460" r="4" fill="#4ade80" opacity="0.9"/>
    <circle cx="600" cy="1500" r="4" fill="#4ade80" opacity="0.9"/>
    <circle cx="600" cy="1540" r="4" fill="#4ade80" opacity="0.9"/>
  </g>
</svg>
